<?xml version="1.0" encoding="utf-8"?>
<!-- Generator: Adobe Illustrator 22.0.1, SVG Export Plug-In . SVG Version: 6.00 Build 0)  -->
<svg version="1.1" id="Layer_1" xmlns="http://www.w3.org/2000/svg" xmlns:xlink="http://www.w3.org/1999/xlink" x="0px" y="0px"
	 viewBox="0 0 512 512" style="enable-background:new 0 0 512 512;" xml:space="preserve">
<style type="text/css">
	.st0{fill:#5E7EF2;}
</style>
<path class="st0" d="M502.9,436.3l-95.8-40.7V243.2c0-6.5-4.1-12.2-10.3-14.2l-125.3-41.8V62c0-8.3-6.7-15-15-15
	c-8.3,0-15,6.7-15,15v125.2L116.1,229c-6.1,2-10.3,7.8-10.3,14.2v151.9L9.1,436.3C1.5,439.5-2,448.4,1.2,456c2.4,5.7,8,9.1,13.8,9.1
	c2,0,3.9-0.4,5.9-1.2L121,421.3l130.8,42.9c1.5,0.5,3.1,0.7,4.7,0.7s3.2-0.2,4.7-0.7l130.2-42.7l99.7,42.4c1.9,0.8,3.9,1.2,5.9,1.2
	c5.8,0,11.4-3.4,13.8-9.1C514,448.4,510.5,439.5,502.9,436.3z M256.5,213.8l87.8,29.3l-87.8,28.8l-87.8-28.8L256.5,213.8z
	 M271.5,298.6l105.6-34.6v130.7l-105.6,34.6V298.6z M135.9,263.9l105.6,34.6v130.7l-105.6-34.6V263.9z"/>
</svg>
