<?xml version="1.0" encoding="utf-8"?>
<!-- Generator: Adobe Illustrator 22.0.1, SVG Export Plug-In . SVG Version: 6.00 Build 0)  -->
<svg version="1.1" id="Capa_1" xmlns="http://www.w3.org/2000/svg" xmlns:xlink="http://www.w3.org/1999/xlink" x="0px" y="0px"
	 viewBox="0 0 512 512" style="enable-background:new 0 0 512 512;" xml:space="preserve">
<style type="text/css">
	.st0{fill:#5E7EF2;}
</style>
<g>
	<g>
		<path class="st0" d="M166,90c-41.4,0-75,33.6-75,75s33.6,75,75,75s75-33.6,75-75S207.4,90,166,90z M166,210c-24.8,0-45-20.2-45-45
			s20.2-45,45-45s45,20.2,45,45S190.8,210,166,210z"/>
	</g>
</g>
<g>
	<g>
		<circle class="st0" cx="256" cy="255" r="15"/>
	</g>
</g>
<g>
	<g>
		<path class="st0" d="M497,210c-5.9,0-156.6,0-166,0v-45c0-5.1-0.2-10.1-0.7-15H346c8.3,0,15-6.7,15-15V75c0-24.8-20.2-45-45-45
			h-55.2C233.9,11.1,201.2,0,166,0C74.5,0,0,74,0,165s74.5,165,166,165h150c8.3,0,15-6.7,15-15v-15c7.2,0,146.4,0,151,0v15
			c0,8.3,6.7,15,15,15s15-6.7,15-15c0-11.3,0-80.8,0-90C512,216.7,505.3,210,497,210z M301,225c0,7.8,0,67.6,0,75H166
			c-75,0-136-60.6-136-135S91,30,166,30c74.4,0,135,60.6,135,135V225z M324.8,120c-6.3-22.3-17.2-42.6-31.6-60H316
			c8.3,0,15,6.7,15,15v45H324.8z M421,270h-90v-30h90V270z M482,270h-31v-30h31V270z"/>
	</g>
</g>
<g>
	<g>
		<path class="st0" d="M497,392H15c-8.3,0-15,6.7-15,15v90c0,8.3,6.7,15,15,15h482c8.3,0,15-6.7,15-15v-90
			C512,398.7,505.3,392,497,392z M482,482H30v-60h76v15c0,8.3,6.7,15,15,15s15-6.7,15-15v-15h60v15c0,8.3,6.7,15,15,15s15-6.7,15-15
			v-15h60v15c0,8.3,6.7,15,15,15s15-6.7,15-15v-15h60v15c0,8.3,6.7,15,15,15s15-6.7,15-15v-15h76V482z"/>
	</g>
</g>
</svg>
