<?xml version="1.0" encoding="utf-8"?>
<!-- Generator: Adobe Illustrator 22.0.1, SVG Export Plug-In . SVG Version: 6.00 Build 0)  -->
<svg version="1.1" id="Layer_1" xmlns="http://www.w3.org/2000/svg" xmlns:xlink="http://www.w3.org/1999/xlink" x="0px" y="0px"
	 viewBox="0 0 512 511" style="enable-background:new 0 0 512 511;" xml:space="preserve">
<style type="text/css">
	.st0{fill:#5E7EF2;}
</style>
<path class="st0" d="M482,425.1V165.5c0-8.3-6.7-15-15-15c-8.3,0-15,6.7-15,15v75h-75c-8.3,0-15,6.7-15,15c0,8.3,6.7,15,15,15h75
	v154.6c-12.8,4.5-22.9,14.7-27.4,27.4H272v-107c0-8.3-6.7-15-15-15c-8.3,0-15,6.7-15,15v107H87.4c-4.5-12.8-14.7-22.9-27.4-27.4
	V270.5h107c8.3,0,15-6.7,15-15c0-8.3-6.7-15-15-15H60V87.9c12.8-4.5,22.9-14.7,27.4-27.4H242v75c0,8.3,6.7,15,15,15
	c8.3,0,15-6.7,15-15v-75h75c8.3,0,15-6.7,15-15c0-8.3-6.7-15-15-15H87.4C81.2,13,64.6,0.5,45,0.5c-24.8,0-45,20.2-45,45
	c0,19.6,12.5,36.2,30,42.4v337.2c-17.5,6.2-30,22.9-30,42.4c0,24.8,20.2,45,45,45c19.6,0,36.2-12.5,42.4-30h337.2
	c6.2,17.5,22.9,30,42.4,30c24.8,0,45-20.2,45-45C512,447.9,499.4,431.3,482,425.1z M45,30.5c8.3,0,15,6.7,15,15c0,8.3-6.7,15-15,15
	c-8.3,0-15-6.7-15-15C30,37.2,36.7,30.5,45,30.5z M45,482.5c-8.3,0-15-6.7-15-15c0-8.3,6.7-15,15-15c8.3,0,15,6.7,15,15
	C60,475.8,53.3,482.5,45,482.5z M467,482.5c-8.3,0-15-6.7-15-15c0-8.3,6.7-15,15-15c8.3,0,15,6.7,15,15
	C482,475.8,475.3,482.5,467,482.5z"/>
<path class="st0" d="M435.2,13.7L250.8,198.1c0,0,0,0,0,0c0,0,0,0,0,0l-28.5,28.5c-1.6,1.6-2.9,3.7-3.6,5.9l-20.1,60.3l-18.7,18.7
	c-5.9,5.9-5.9,15.4,0,21.2c5.9,5.9,15.4,5.9,21.2,0l18.7-18.7l60.3-20.1c2.2-0.7,4.2-2,5.9-3.6L498.8,77.3
	c17.6-17.6,17.6-46.1,0-63.6C481.3-3.9,452.7-3.9,435.2,13.7z M267.2,266.5l-31.8,10.6l10.6-31.8l15.4-15.4l21.2,21.2L267.2,266.5z
	 M303.8,229.9l-21.2-21.2l142-142l21.2,21.2L303.8,229.9z M477.6,56.1L467,66.7l-21.2-21.2l10.6-10.6c5.9-5.8,15.4-5.8,21.2,0
	C483.5,40.8,483.5,50.2,477.6,56.1z"/>
</svg>
