<?xml version="1.0" encoding="utf-8"?>
<!-- Generator: Adobe Illustrator 22.0.1, SVG Export Plug-In . SVG Version: 6.00 Build 0)  -->
<svg version="1.1" id="Layer_1" xmlns="http://www.w3.org/2000/svg" xmlns:xlink="http://www.w3.org/1999/xlink" x="0px" y="0px"
	 viewBox="0 0 181.4 16.2" style="enable-background:new 0 0 181.4 16.2;" xml:space="preserve">
<style type="text/css">
	.st0{fill:#FFFFFF;}
</style>
<g>
	<path class="st0" d="M16.7,0.2l-1.6,1.6v12l1.4,1.4h-5.4l1.6-1.4V6L9,16.2H7.9l-0.1-0.3h1L12.7,5V3.2l-4.4,12H7.6L4.4,5.8V12
		c0,0.8,0.1,1.4,0.2,1.8c0.1,0.3,0.4,0.7,0.8,1.1l1.1,1.3H0.2L0,15.9h5.8l-0.4-0.6H0.1l0.2-0.1c0.9-0.5,1.4-1,1.7-1.5
		c0.3-0.5,0.4-1.3,0.4-2.3V1.7L0.9,0.2H7L5.3,1.8l3.3,9.8l0.4-1L6,1.9l1.5-1.1l0.2,0.2L6.4,2l2.8,8.2l3-8.4l-1.4-1.5H16.7L16.7,0.2z
		 M3.4,3v8.4c0,1.3,0.1,2.2,0.4,2.7c0.2,0.5,0.8,0.8,1.5,1.1L5.2,15c-0.8-0.5-1.2-1.3-1.2-2.3v-0.9V4.9L3.4,3L3.4,3z M17.3,1.2
		l-1.3,1v11.8l2,2.3h-6.2l-0.2-0.3h5.7l-1.6-1.8V1.9l1.4-1L17.3,1.2L17.3,1.2z M29.3,0.2l-1.2,1.4L30,6.7l0.5-0.3l-1.7-4.6L30,0.4
		l0.3,0.1l-1.2,1.4l1.6,4.4c0.1-0.1,0.2-0.1,0.2-0.1l0.4-0.3c0.2-0.2,0.4-0.3,0.4-0.4c0.2,0.9,0.5,1.7,0.9,2.4c-0.2,0-0.4,0-0.5,0
		c-0.7,0-1.3,0.1-1.6,0.3l2.1,5.8l1.8,1.4h-5.9l1.6-1.4l-1.3-3.4c-0.9,0.9-1.5,1.7-2,2.5l-0.3-0.1c0.5-0.8,1.1-1.6,2.1-2.6l0.1-0.1
		l-0.2-0.5c-0.9,0.8-1.7,1.7-2.3,2.7L26,12.1c-0.4-0.6-0.9-1.4-1.6-2.2l-0.1-0.1c-0.6,1.3-0.9,2.4-0.9,3.3c0,0.5,0.1,0.9,0.3,1.2
		c0.2,0.3,0.6,0.9,1.2,1.7c0.1,0.1,0.1,0.2,0.3,0.3h-6.3l-0.2-0.3h6l-0.2-0.2c-0.5-0.6-0.9-1.1-1-1.5c-0.2-0.3-0.2-0.8-0.2-1.2
		c0-0.8,0.3-2,1-3.6l-0.5-0.5c-0.1,0.2-0.2,0.6-0.4,1.1l-0.4,1.2c-0.2,0.6-0.3,1.2-0.3,1.6c0,0.4,0.1,0.8,0.2,1.1
		c0.1,0.3,0.5,0.7,0.9,1.2c0,0,0.1,0.1,0.2,0.2H18c1.1-0.6,2-1.4,2.7-2.3c0.7-1,1.3-2.5,1.9-4.5l0-0.2c-0.4-0.4-1-0.6-1.8-0.6
		c0.4-0.6,0.8-1.3,1-2C21.9,5.7,22,5.8,22,5.8l0.5,0.5c0.2,0.2,0.4,0.3,0.6,0.5l0.2-0.5l-0.1-0.1c-0.4-0.3-0.7-0.6-1-0.8l-0.1-0.1
		L22.3,5c0.4,0.3,0.8,0.6,1.2,0.9l1.6-4.4l-1.2-1.3H29.3L29.3,0.2z M26.4,4l-1.3,3.4c0.1,0.1,0.1,0.1,0.1,0.1l0.5,0.5
		c0.3,0.3,0.6,0.7,1,1.3l0.1,0.2c0.3-0.4,0.7-0.8,1.2-1.3L26.4,4L26.4,4z M25.9,2.6L24,7.6c0.6,0.6,1.1,1.2,1.5,1.8l0.5,0.8
		c0,0,0,0.1,0.1,0.2c0.1-0.1,0.1-0.1,0.1-0.1l0.2-0.2c0,0,0.1-0.1,0.1-0.2c-0.5-0.8-1.2-1.6-1.9-2.3l1.5-4L25.9,2.6L25.9,2.6z
		 M32.8,6c0.2,0.7,0.6,1.7,1.3,2.9c-0.2,0-0.3,0-0.3,0l-0.9-0.1c-0.4,0-0.7-0.1-0.9-0.1c0,0-0.1,0-0.2,0l2,5.2l2.6,2.3h-6.8
		l-0.2-0.3h6.2l-2.1-1.9l-2.1-5.5c0.3-0.1,0.6-0.1,0.9-0.1c0.4,0,0.9,0,1.4,0.1l-0.1-0.3c-0.5-0.9-0.8-1.8-1-2.5L32.8,6L32.8,6z
		 M49.9,0.7L47.7,5c-0.1-1.2-0.5-2.2-1.2-2.8c-0.6-0.6-1.5-1-2.5-1c-1.5,0-2.6,0.6-3.4,1.7c-0.8,1.1-1.2,2.7-1.2,4.8
		c0,4.5,1.9,6.8,5.6,6.8h1.9V8.4h-3c-0.6,0-1.1,0-1.4-0.1c-0.3-0.1-0.5-0.2-0.8-0.5V7.6C42,7.8,42.2,7.9,42.5,8
		c0.3,0.1,0.7,0.1,1.4,0.1h2.9V7.4h-3.3H43c-1.2,0-1.8-0.4-1.8-1.3c0-0.3,0.1-0.6,0.3-0.8C41.8,5.1,42,5,42.3,5
		c0.2,0,0.4,0.1,0.5,0.2C43,5.3,43,5.5,43,5.7c0,0.3-0.1,0.5-0.4,0.6l-0.3,0.1c-0.1,0-0.1,0.1-0.1,0.1c0,0.1,0.1,0.2,0.4,0.2H43h7.7
		l-1.6,1.6V14l1.5,1.3h-6h-1.2c-1,0-1.8-0.1-2.5-0.4c-0.6-0.2-1.3-0.7-2-1.3c-1.6-1.4-2.4-3.4-2.4-5.8c0-2.5,0.7-4.4,2.2-5.8
		c1.3-1.2,2.8-1.8,4.6-1.8c0.8,0,1.7,0.1,2.7,0.4C47.3,0.9,48,1,48.4,1C48.8,1,49.3,0.9,49.9,0.7L49.9,0.7z M50.6,1.4l-2,3.9
		l-0.3-0.1l2-4L50.6,1.4L50.6,1.4z M46.8,3.2L46.6,3c-0.9-0.6-1.7-0.9-2.4-0.9c-0.9,0-1.7,0.3-2.3,0.9c-0.5,0.5-0.8,1.1-1,1.8
		c-0.2,0.8-0.3,1.8-0.3,3c0,1.6,0.2,2.8,0.5,3.6c0.3,0.8,0.9,1.6,1.7,2.3v0.1c-0.9-0.5-1.6-1.3-2-2.3c-0.4-1-0.6-2.3-0.6-4
		c0-1.9,0.3-3.3,1-4.3c0.7-1,1.7-1.5,2.9-1.5C45.2,1.8,46.1,2.2,46.8,3.2L46.8,3.2L46.8,3.2z M51.3,7.3l-1.2,1.2V14l1.9,2.2l-4.6,0
		l-4.2,0c-0.3,0-0.5,0-0.6,0c-0.5-0.1-1-0.3-1.5-0.6h0.2c0.5,0.2,1.3,0.3,2.2,0.3h0.6h7.3l-1.6-1.8V8.4L51.1,7L51.3,7.3L51.3,7.3z
		 M66.3,0.2c-0.9,0.5-1.5,0.9-1.7,1.3C64.2,2.1,64,3,64,4.2V5v10.3h-2L56.5,4.5v6.4v0.5l0.1,1.7c0.2,0.8,0.5,1.4,1.1,1.7l0.1,0.1
		c-1.1-0.4-1.6-1.5-1.6-3.5v-1.1V4l-0.6-1.2v6.8c0,2.1,0.1,3.5,0.4,4.2c0.3,0.7,0.9,1.2,2,1.5l1,1.1h-6.3l-0.2-0.3h5.9l-0.6-0.6
		h-5.5c1-0.3,1.6-0.8,1.9-1.4c0.3-0.6,0.5-1.6,0.5-3V1.5l-1.6-1.3H59l-1.7,1.1L63,12.4V11l-4.9-9.5l1.6-1.1L60,0.7l-1.5,1l4.5,8.8
		V4.9V4.3c0-1.4-0.1-2.3-0.3-2.7c-0.2-0.5-0.8-0.9-1.6-1.3H66.3L66.3,0.2z M66.8,1.1l-0.2,0.4c-0.6,0.1-1,0.4-1.2,0.8
		c-0.2,0.4-0.3,1-0.3,1.9v12.1h-2.5l-0.2-0.3h2.4V4.3c0-1.1,0.1-1.9,0.4-2.3C65.4,1.5,65.9,1.2,66.8,1.1L66.8,1.1z M78.2,0.2L77,1.6
		l1.9,5.1l0.5-0.3l-1.7-4.6l1.2-1.4l0.3,0.1L78,1.9l1.6,4.4c0.1-0.1,0.2-0.1,0.2-0.1l0.4-0.3c0.2-0.2,0.4-0.3,0.4-0.4
		c0.2,0.9,0.5,1.7,0.9,2.4c-0.2,0-0.4,0-0.5,0c-0.7,0-1.3,0.1-1.6,0.3l2.1,5.8l1.8,1.4h-5.9l1.6-1.4l-1.3-3.4
		c-0.9,0.9-1.5,1.7-2,2.5l-0.3-0.1c0.5-0.8,1.1-1.6,2.1-2.6l0.1-0.1l-0.2-0.5c-0.9,0.8-1.7,1.7-2.3,2.7l-0.2-0.3
		c-0.4-0.6-0.9-1.4-1.6-2.2l-0.1-0.1c-0.6,1.3-0.9,2.4-0.9,3.3c0,0.5,0.1,0.9,0.3,1.2c0.2,0.3,0.6,0.9,1.2,1.7
		c0.1,0.1,0.1,0.2,0.3,0.3h-6.3l-0.2-0.3h6l-0.2-0.2c-0.5-0.6-0.9-1.1-1-1.5C72.1,13.9,72,13.5,72,13c0-0.8,0.3-2,1-3.6l-0.5-0.5
		c-0.1,0.2-0.2,0.6-0.4,1.1l-0.4,1.2c-0.2,0.6-0.3,1.2-0.3,1.6c0,0.4,0.1,0.8,0.2,1.1c0.1,0.3,0.5,0.7,0.9,1.2c0,0,0.1,0.1,0.2,0.2
		h-5.9c1.1-0.6,2-1.4,2.7-2.3c0.7-1,1.3-2.5,1.9-4.5l0-0.2c-0.4-0.4-1-0.6-1.8-0.6c0.4-0.6,0.8-1.3,1-2c0.1,0.1,0.2,0.2,0.2,0.2
		l0.5,0.5c0.2,0.2,0.4,0.3,0.6,0.5l0.2-0.5l-0.1-0.1c-0.4-0.3-0.7-0.6-1-0.8l-0.1-0.1L71.3,5c0.4,0.3,0.8,0.6,1.2,0.9l1.6-4.4
		l-1.2-1.3H78.2L78.2,0.2z M75.3,4l-1.3,3.4c0.1,0.1,0.1,0.1,0.1,0.1l0.5,0.5c0.3,0.3,0.6,0.7,1,1.3l0.1,0.2
		c0.3-0.4,0.7-0.8,1.2-1.3L75.3,4L75.3,4z M74.8,2.6L73,7.6c0.6,0.6,1.1,1.2,1.5,1.8l0.5,0.8c0,0,0,0.1,0.1,0.2
		c0.1-0.1,0.1-0.1,0.1-0.1l0.2-0.2c0,0,0.1-0.1,0.1-0.2C75,9,74.4,8.2,73.6,7.5l1.5-4L74.8,2.6L74.8,2.6z M81.7,6
		c0.2,0.7,0.6,1.7,1.3,2.9c-0.2,0-0.3,0-0.3,0l-0.9-0.1c-0.4,0-0.7-0.1-0.9-0.1c0,0-0.1,0-0.2,0l2,5.2l2.6,2.3h-6.8l-0.2-0.3h6.2
		l-2.1-1.9l-2.1-5.5c0.3-0.1,0.6-0.1,0.9-0.1c0.4,0,0.9,0,1.4,0.1l-0.1-0.3c-0.5-0.9-0.8-1.8-1-2.5L81.7,6L81.7,6z M96.9,7.2
		l0.5,1.4h-5.9l-0.5-1.4H96.9L96.9,7.2z M98.6,9.4h-6.3l-0.3-0.3h6.1l-0.5-1.6L98,7.8L98.6,9.4L98.6,9.4z M120.9,0.2l-1.6,1.6v12
		l1.4,1.4h-5.4l1.6-1.4V6l-3.7,10.2h-1.1l-0.1-0.3h1L116.9,5V3.2l-4.4,12h-0.8l-3.2-9.4V12c0,0.8,0.1,1.4,0.2,1.8
		c0.1,0.3,0.4,0.7,0.8,1.1l1.1,1.3h-6.1l-0.2-0.3h5.8l-0.4-0.6h-5.2l0.2-0.1c0.9-0.5,1.4-1,1.7-1.5c0.3-0.5,0.4-1.3,0.4-2.3V1.7
		l-1.5-1.5h6.1l-1.7,1.5l3.3,9.8l0.4-1l-3-8.7l1.5-1.1l0.2,0.2l-1.5,1l2.8,8.2l3-8.4l-1.4-1.5H120.9L120.9,0.2z M107.6,3v8.4
		c0,1.3,0.1,2.2,0.4,2.7c0.2,0.5,0.8,0.8,1.5,1.1l-0.1-0.2c-0.8-0.5-1.2-1.3-1.2-2.3v-0.9V4.9L107.6,3L107.6,3z M121.5,1.2l-1.3,1
		v11.8l2,2.3H116l-0.2-0.3h5.7l-1.6-1.8V1.9l1.4-1L121.5,1.2L121.5,1.2z M135.4,0.2l-0.2,0.2c-0.8,1-1.4,2.1-1.9,3.4
		c-0.1-0.2-0.1-0.3-0.2-0.4c-0.4-0.9-0.9-1.5-1.4-1.8c-0.5-0.3-1.4-0.4-2.6-0.4c-0.6,0-1.3,0-2.1,0.1v5.4h0.7V1.9
		c0.6-0.1,1.2-0.1,1.7-0.1c1,0,1.7,0.1,2.2,0.3c0.5,0.2,0.9,0.6,1.3,1.2c-0.1-0.1-0.2-0.1-0.2-0.2c-0.6-0.5-1.1-0.8-1.4-0.9
		c-0.3-0.1-0.8-0.1-1.7-0.1c-0.3,0-0.7,0-1.3,0.1l-0.2,0v4.5h2.2l1.5-2.1v5l-1.5-1.9H127v6.6h0.7v-6h2.6l0.3,0.3H128v5.7
		c1.6,0,2.7-0.1,3.4-0.3c0.7-0.2,1.2-0.7,1.6-1.3l0.6-1.1c0,0,0.1-0.1,0.1-0.3c0.2,0.9,0.5,1.5,0.8,2.1c0.3,0.5,0.8,1.1,1.5,1.8
		h-13.1l1.8-1.4V8.5c-0.7,0.1-1.2,0.3-1.8,0.6l-0.2-0.2c0.5-0.3,1.1-0.6,1.9-0.7V7.7c-0.1,0-0.2,0-0.3,0c-0.8,0-1.5,0.3-2.2,0.9
		c0.4-1.2,1.2-1.8,2.5-1.8v-5l-1.8-1.4H135.4L135.4,0.2z M135.9,1.1l-0.1,0.1c-1,1.3-1.6,2.4-1.9,3.2l-0.2-0.2
		c0.5-1.2,1.2-2.3,2-3.3L135.9,1.1L135.9,1.1z M132.5,5v5.2l-0.3-0.2V4.8L132.5,5L132.5,5z M137.3,15.2l-0.6,1.1h-12.8l-0.2-0.3
		h12.8l0.4-0.7c-1.1-1-1.9-2.1-2.4-3.3l0.4,0.1c0.4,1,1.2,2,2.2,3L137.3,15.2L137.3,15.2z M137.9,1.8c1.9-1.2,3.9-1.8,6.3-1.8
		c1.7,0,3,0.4,4.1,1.1c1.1,0.8,1.6,1.7,1.6,2.9c0,1.6-0.9,2.7-2.8,3.2v0.1c0.2,0,0.4,0.1,0.7,0.2c0.9-0.2,1.6-0.6,2.1-1.2
		c0.5-0.6,0.7-1.4,0.7-2.3c0-1.1-0.5-2.1-1.4-3V1l0.1,0.1c1,0.8,1.5,1.8,1.5,3c0,1.7-0.9,2.9-2.7,3.6c0.8,0.4,1.4,0.9,1.8,1.5
		c0.4,0.6,0.6,1.4,0.6,2.2c0,1.2-0.4,2.1-1.3,2.8c-0.8,0.7-2,1-3.4,1h-8.4l1.6-1.4V8.8c-0.5,0-1,0-1.6,0.1l-0.1-0.3
		c0.7-0.1,1.3-0.1,1.7-0.1V7.9h-0.3c-0.4,0-1,0-1.7,0.1l0.5-1.1l0.2,0c0.3,0,0.5,0,0.7,0c0.2,0,0.4,0,0.6,0V2.5L137.9,1.8L137.9,1.8
		z M141.5,1.7V7c0.1,0,0.1,0,0.2,0l0.2,0c0,0,0.1,0,0.2,0V2.2c0.7-0.3,1.3-0.5,2-0.5c0.7,0,1.3,0.1,1.7,0.4c0.4,0.3,0.8,0.7,1.1,1.4
		l-0.3-0.2c-0.6-0.9-1.4-1.3-2.5-1.3c-0.6,0-1.2,0.2-1.6,0.5V7l0.5,0c1.5,0,2.6-0.2,3.3-0.7c0.7-0.5,1.1-1.3,1.1-2.3
		c0-0.9-0.3-1.6-0.9-2.2c-0.6-0.6-1.4-0.8-2.4-0.8C143.2,0.9,142.4,1.2,141.5,1.7L141.5,1.7z M141.5,7.9v6.5h0.6V8.6
		c0.6,0,1-0.1,1.2-0.1c1.3,0,2.2,0.1,2.8,0.4c0.6,0.2,1,0.7,1.4,1.4h-0.1c-0.4-0.5-0.9-0.9-1.4-1.1c-0.6-0.2-1.4-0.3-2.5-0.3l-1,0
		v5.5h0.4l1.7-0.1c2.2-0.2,3.3-1.2,3.3-3.2c0-1.2-0.4-2.1-1.1-2.6c-0.7-0.5-2.1-0.7-4.1-0.7C142.5,7.9,142.1,7.9,141.5,7.9
		L141.5,7.9z M150.3,8.7c0.8,0.6,1.3,1.6,1.3,3c0,1.3-0.5,2.4-1.4,3.3c-0.9,0.8-2.2,1.3-4,1.3h-8l-0.2-0.3h7.4
		c1.6,0,2.8-0.2,3.5-0.5c1.6-0.7,2.4-2,2.4-3.8c0-1-0.4-1.9-1.1-2.8L150.3,8.7L150.3,8.7z M165.8,0.2l-0.2,0.2
		c-0.8,1-1.4,2.1-1.9,3.4c-0.1-0.2-0.1-0.3-0.2-0.4c-0.4-0.9-0.9-1.5-1.4-1.8c-0.5-0.3-1.4-0.4-2.6-0.4c-0.6,0-1.3,0-2.1,0.1v5.4
		h0.7V1.9c0.6-0.1,1.2-0.1,1.7-0.1c1,0,1.7,0.1,2.2,0.3c0.5,0.2,0.9,0.6,1.3,1.2c-0.1-0.1-0.2-0.1-0.2-0.2c-0.6-0.5-1.1-0.8-1.4-0.9
		c-0.3-0.1-0.8-0.1-1.7-0.1c-0.3,0-0.7,0-1.3,0.1l-0.2,0v4.5h2.2l1.5-2.1v5l-1.5-1.9h-3.2v6.6h0.7v-6h2.6l0.3,0.3h-2.6v5.7
		c1.6,0,2.7-0.1,3.4-0.3c0.7-0.2,1.2-0.7,1.6-1.3l0.6-1.1c0,0,0.1-0.1,0.1-0.3c0.2,0.9,0.5,1.5,0.8,2.1c0.3,0.5,0.8,1.1,1.5,1.8
		h-13.1l1.8-1.4V8.5c-0.7,0.1-1.2,0.3-1.8,0.6l-0.2-0.2c0.5-0.3,1.1-0.6,1.9-0.7V7.7c-0.1,0-0.2,0-0.3,0c-0.8,0-1.5,0.3-2.2,0.9
		c0.4-1.2,1.2-1.8,2.5-1.8v-5l-1.8-1.4H165.8L165.8,0.2z M166.3,1.1l-0.1,0.1c-1,1.3-1.6,2.4-1.9,3.2l-0.2-0.2
		c0.5-1.2,1.2-2.3,2-3.3L166.3,1.1L166.3,1.1z M162.9,5v5.2l-0.3-0.2V4.8L162.9,5L162.9,5z M167.7,15.2l-0.6,1.1h-12.8l-0.2-0.3H167
		l0.4-0.7c-1.1-1-1.9-2.1-2.4-3.3l0.4,0.1c0.4,1,1.2,2,2.2,3L167.7,15.2L167.7,15.2z M168,0.2h5.6l-1.7,1.6v12.5h0.1l0.4,0h0.1V2
		l1.3-1.3l0.2,0.3l-1.1,1.2v12.3c0.4,0,0.7,0,1,0c1.2,0,2.2-0.3,2.8-0.8c0.6-0.6,1.1-1.5,1.3-2.7c0.7,2.1,1.5,3.6,2.3,4.4H168
		l1.6-1.3V1.7L168,0.2L168,0.2z M181.4,15.2l-0.5,1.1h-12.2l-0.3-0.3h12.4l0.3-0.7c-0.9-1.1-1.5-2.2-2.1-3.5l0-0.1l0.4,0.1l0.1,0.2
		c0.5,1.2,1.1,2.2,1.9,3.2L181.4,15.2L181.4,15.2z"/>
</g>
</svg>
