<?xml version="1.0" encoding="utf-8"?>
<!-- Generator: Adobe Illustrator 22.0.1, SVG Export Plug-In . SVG Version: 6.00 Build 0)  -->
<svg version="1.1" id="Layer_1" xmlns="http://www.w3.org/2000/svg" xmlns:xlink="http://www.w3.org/1999/xlink" x="0px" y="0px"
	 viewBox="0 0 512 512" style="enable-background:new 0 0 512 512;" xml:space="preserve">
<style type="text/css">
	.st0{fill:#5E7EF2;}
</style>
<g>
	<path class="st0" d="M376,144h16c4.4,0,8-3.6,8-8v-24c0-4.4-3.6-8-8-8H280V56h8c4.4,0,8-3.6,8-8c0-0.7-0.1-1.3-0.2-1.9l-8-32
		c-0.9-3.6-4.1-6.1-7.8-6.1h-48c-3.7,0-6.9,2.5-7.8,6.1l-8,32c-1.1,4.3,1.5,8.6,5.8,9.7c0.6,0.2,1.3,0.2,1.9,0.2h8v48H120
		c-4.4,0-8,3.6-8,8v24c0,4.4,3.6,8,8,8h16c0,25.2,11.9,48.9,32.1,64H120c-4.4,0-8,3.6-8,8v280c0,4.4,3.6,8,8,8h24
		c3.4,0,6.5-2.2,7.6-5.5l6.2-18.5h196.5l6.2,18.5c1.1,3.3,4.1,5.5,7.6,5.5h24c4.4,0,8-3.6,8-8V216c0-4.4-3.6-8-8-8h-48.1
		C364.1,192.9,376,169.2,376,144z M238.3,24h35.5l4,16h-43.5L238.3,24z M264,56v48h-16V56H264z M128,128v-8h256v8H128z M138.2,488
		H128v-8h12.9L138.2,488z M384,488h-10.2l-2.7-8H384V488z M384,224v240H128V224H384z M296,208h-80c-35.3,0-64-28.7-64-64h208
		C360,179.3,331.3,208,296,208z"/>
	<path class="st0" d="M136,240v208c0,4.4,3.6,8,8,8h224c4.4,0,8-3.6,8-8V240c0-4.4-3.6-8-8-8H144C139.6,232,136,235.6,136,240z
		 M360,440h-96V248h96V440z M152,248h96v192h-96V248z"/>
	<path class="st0" d="M224,320c-4.4,0-8,3.6-8,8v48c0,4.4,3.6,8,8,8s8-3.6,8-8v-48C232,323.6,228.4,320,224,320z"/>
	<path class="st0" d="M288,384c4.4,0,8-3.6,8-8v-48c0-4.4-3.6-8-8-8s-8,3.6-8,8v48C280,380.4,283.6,384,288,384z"/>
	<path class="st0" d="M232,152h-56c-4.4,0-8,3.6-8,8s3.6,8,8,8h56c4.4,0,8-3.6,8-8S236.4,152,232,152z"/>
	<path class="st0" d="M264,152h-8c-4.4,0-8,3.6-8,8s3.6,8,8,8h8c4.4,0,8-3.6,8-8S268.4,152,264,152z"/>
</g>
</svg>
