<?xml version="1.0" encoding="utf-8"?>
<!-- Generator: Adobe Illustrator 22.0.1, SVG Export Plug-In . SVG Version: 6.00 Build 0)  -->
<svg version="1.1" id="Capa_1" xmlns="http://www.w3.org/2000/svg" xmlns:xlink="http://www.w3.org/1999/xlink" x="0px" y="0px"
	 viewBox="0 0 480 480" style="enable-background:new 0 0 480 480;" xml:space="preserve">
<style type="text/css">
	.st0{fill:#5E7EF2;}
</style>
<g>
	<g>
		<g>
			<path class="st0" d="M472,232h-88v-24h40c4.4,0,8-3.6,8-8V8c0-4.4-3.6-8-8-8H56c-4.4,0-8,3.6-8,8v192c0,4.4,3.6,8,8,8h40v24H8
				c-4.4,0-8,3.6-8,8v192c0,4.4,3.6,8,8,8h24v32c0,4.4,3.6,8,8,8h32c4.4,0,8-3.6,8-8v-32h320v32c0,4.4,3.6,8,8,8h32c4.4,0,8-3.6,8-8
				v-32h24c4.4,0,8-3.6,8-8V240C480,235.6,476.4,232,472,232z M64,192V16h352v176H64z M368,208v24h-8v-24H368z M344,208v24H136v-24
				H344z M120,208v24h-8v-24H120z M64,464H48v-24h16V464z M432,464h-16v-24h16V464z M464,424H16V248h448V424z"/>
			<path class="st0" d="M296,408h144c4.4,0,8-3.6,8-8V272c0-4.4-3.6-8-8-8H296c-4.4,0-8,3.6-8,8v128C288,404.4,291.6,408,296,408z
				 M304,280h128v112H304V280z"/>
			<path class="st0" d="M40,328h224c4.4,0,8-3.6,8-8v-48c0-4.4-3.6-8-8-8H40c-4.4,0-8,3.6-8,8v48C32,324.4,35.6,328,40,328z M48,280
				h208v32H48V280z"/>
			<path class="st0" d="M40,408h224c4.4,0,8-3.6,8-8v-48c0-4.4-3.6-8-8-8H40c-4.4,0-8,3.6-8,8v48C32,404.4,35.6,408,40,408z M48,360
				h208v32H48V360z"/>
			<path class="st0" d="M416,312c-4.4,0-8,3.6-8,8v32c0,4.4,3.6,8,8,8s8-3.6,8-8v-32C424,315.6,420.4,312,416,312z"/>
			<path class="st0" d="M160,288h-16c-4.4,0-8,3.6-8,8s3.6,8,8,8h16c4.4,0,8-3.6,8-8S164.4,288,160,288z"/>
			<path class="st0" d="M160,368h-16c-4.4,0-8,3.6-8,8s3.6,8,8,8h16c4.4,0,8-3.6,8-8S164.4,368,160,368z"/>
			<path class="st0" d="M72,184h336V24H72V184z M88,40h304v128H88V40z"/>
		</g>
	</g>
</g>
</svg>
