<?xml version="1.0" encoding="iso-8859-1"?>
<!-- Generator: Adobe Illustrator 19.0.0, SVG Export Plug-In . SVG Version: 6.00 Build 0)  -->
<svg version="1.1" id="Capa_1" xmlns="http://www.w3.org/2000/svg" xmlns:xlink="http://www.w3.org/1999/xlink" x="0px" y="0px"
	 viewBox="0 0 480 480" style="enable-background:new 0 0 480 480;" xml:space="preserve">
<g>
	<g>
		<g>
			<path d="M472,232h-88v-24h40c4.418,0,8-3.582,8-8V8c0-4.418-3.582-8-8-8H56c-4.418,0-8,3.582-8,8v192c0,4.418,3.582,8,8,8h40v24
				H8c-4.418,0-8,3.582-8,8v192c0,4.418,3.582,8,8,8h24v32c0,4.418,3.582,8,8,8h32c4.418,0,8-3.582,8-8v-32h320v32
				c0,4.418,3.582,8,8,8h32c4.418,0,8-3.582,8-8v-32h24c4.418,0,8-3.582,8-8V240C480,235.582,476.418,232,472,232z M64,192V16h352
				v176H64z M368,208v24h-8v-24H368z M344,208v24H136v-24H344z M120,208v24h-8v-24H120z M64,464H48v-24h16V464z M432,464h-16v-24h16
				V464z M464,424H16V248h448V424z"/>
			<path d="M296,408h144c4.418,0,8-3.582,8-8V272c0-4.418-3.582-8-8-8H296c-4.418,0-8,3.582-8,8v128
				C288,404.418,291.582,408,296,408z M304,280h128v112H304V280z"/>
			<path d="M40,328h224c4.418,0,8-3.582,8-8v-48c0-4.418-3.582-8-8-8H40c-4.418,0-8,3.582-8,8v48C32,324.418,35.582,328,40,328z
				 M48,280h208v32H48V280z"/>
			<path d="M40,408h224c4.418,0,8-3.582,8-8v-48c0-4.418-3.582-8-8-8H40c-4.418,0-8,3.582-8,8v48C32,404.418,35.582,408,40,408z
				 M48,360h208v32H48V360z"/>
			<path d="M416,312c-4.418,0-8,3.582-8,8v32c0,4.418,3.582,8,8,8s8-3.582,8-8v-32C424,315.582,420.418,312,416,312z"/>
			<path d="M160,288h-16c-4.418,0-8,3.582-8,8s3.582,8,8,8h16c4.418,0,8-3.582,8-8S164.418,288,160,288z"/>
			<path d="M160,368h-16c-4.418,0-8,3.582-8,8s3.582,8,8,8h16c4.418,0,8-3.582,8-8S164.418,368,160,368z"/>
			<path d="M72,184h336V24H72V184z M88,40h304v128H88V40z"/>
		</g>
	</g>
</g>
<g>
</g>
<g>
</g>
<g>
</g>
<g>
</g>
<g>
</g>
<g>
</g>
<g>
</g>
<g>
</g>
<g>
</g>
<g>
</g>
<g>
</g>
<g>
</g>
<g>
</g>
<g>
</g>
<g>
</g>
</svg>
