<?xml version="1.0" encoding="utf-8"?>
<!-- Generator: Adobe Illustrator 22.0.1, SVG Export Plug-In . SVG Version: 6.00 Build 0)  -->
<svg version="1.1" id="Layer_1" xmlns="http://www.w3.org/2000/svg" xmlns:xlink="http://www.w3.org/1999/xlink" x="0px" y="0px"
	 viewBox="0 0 512 512" style="enable-background:new 0 0 512 512;" xml:space="preserve">
<style type="text/css">
	.st0{fill:#5E7EF2;}
</style>
<g>
	<path class="st0" d="M488,232v-64c0-4.4-3.6-8-8-8h-16c0-17.7-14.3-32-32-32s-32,14.3-32,32h-16c-4.4,0-8,3.6-8,8v64h-8V120
		C368,58.1,317.9,8,256,8S144,58.1,144,120v112h-16v-40c0-4.4-3.6-8-8-8h-16v-24c0-4.4-3.6-8-8-8H64c-4.4,0-8,3.6-8,8v24h-8
		c-4.4,0-8,3.6-8,8v40H24c-8.8,0-16,7.2-16,16v208c0,8.8,7.2,16,16,16h16v24c0,4.4,3.6,8,8,8h24c3.7,0,6.9-2.5,7.8-6.1l6.5-25.9
		h339.5l6.5,25.9c0.9,3.6,4.1,6.1,7.8,6.1h24c4.4,0,8-3.6,8-8v-24h16c8.8,0,16-7.2,16-16V248C504,239.2,496.8,232,488,232z M432,144
		c8.8,0,16,7.2,16,16h-32C416,151.2,423.2,144,432,144z M392,176h8v8c0,4.4,3.6,8,8,8s8-3.6,8-8v-8h32v8c0,4.4,3.6,8,8,8s8-3.6,8-8
		v-8h8v56h-80V176z M160,120c0-53,43-96,96-96s96,43,96,96v112h-8V120c0-48.6-39.4-88-88-88s-88,39.4-88,88v112h-8V120z M328,120
		v112H184V120c0-39.8,32.2-72,72-72S328,80.2,328,120z M72,168h16v16H72V168z M56,200h56v32H56V200z M65.8,488H56v-16h13.8L65.8,488
		z M456,488h-9.8l-4-16H456V488z M488,456H24V248h464V456L488,456z"/>
	<path class="st0" d="M472,256H40c-4.4,0-8,3.6-8,8v176c0,4.4,3.6,8,8,8h432c4.4,0,8-3.6,8-8V264C480,259.6,476.4,256,472,256z
		 M464,344H264v-72h200V344z M248,272v72H48v-72H248z M48,360h200v72H48V360z M264,432v-72h200v72H264z"/>
	<path class="st0" d="M120,320h48c4.4,0,8-3.6,8-8s-3.6-8-8-8h-48c-4.4,0-8,3.6-8,8S115.6,320,120,320z"/>
	<path class="st0" d="M168,392h-48c-4.4,0-8,3.6-8,8s3.6,8,8,8h48c4.4,0,8-3.6,8-8S172.4,392,168,392z"/>
	<path class="st0" d="M344,320h48c4.4,0,8-3.6,8-8s-3.6-8-8-8h-48c-4.4,0-8,3.6-8,8S339.6,320,344,320z"/>
	<path class="st0" d="M392,392h-48c-4.4,0-8,3.6-8,8s3.6,8,8,8h48c4.4,0,8-3.6,8-8S396.4,392,392,392z"/>
	<path class="st0" d="M290.3,106.3l-80,80c-3.1,3.1-3.1,8.2,0,11.3s8.2,3.1,11.3,0l80-80c3.1-3.1,3.1-8.2,0-11.3
		C298.5,103.2,293.5,103.2,290.3,106.3z"/>
	<path class="st0" d="M224,152c2.1,0,4.2-0.8,5.7-2.3l32-32c3.1-3.1,3.1-8.2,0-11.3c-3.1-3.1-8.2-3.1-11.3,0l-32,32
		c-3.1,3.1-3.1,8.2,0,11.3C219.8,151.2,221.9,152,224,152z"/>
	<path class="st0" d="M278.3,158.3l-24,24c-3.1,3.1-3.1,8.2,0,11.3s8.2,3.1,11.3,0l24-24c3.1-3.1,3.1-8.2,0-11.3
		S281.5,155.2,278.3,158.3z"/>
</g>
</svg>
