<?xml version="1.0"?>
<svg xmlns="http://www.w3.org/2000/svg" width="512" height="512" viewBox="0 0 512 512"><g><path d="M376,144h16a8,8,0,0,0,8-8V112a8,8,0,0,0-8-8H280V56h8a8,8,0,0,0,7.76-9.94l-8-32A8,8,0,0,0,280,8H232a8,8,0,0,0-7.76,6.06l-8,32A8,8,0,0,0,224,56h8v48H120a8,8,0,0,0-8,8v24a8,8,0,0,0,8,8h16a79.936,79.936,0,0,0,32.06,64H120a8,8,0,0,0-8,8V496a8,8,0,0,0,8,8h24a8,8,0,0,0,7.59-5.47L157.77,480H354.23l6.18,18.53A8,8,0,0,0,368,504h24a8,8,0,0,0,8-8V216a8,8,0,0,0-8-8H343.94A79.936,79.936,0,0,0,376,144ZM238.25,24h35.5l4,16h-43.5ZM264,56v48H248V56ZM128,128v-8H384v8Zm10.23,360H128v-8h12.9ZM384,488H373.77l-2.67-8H384Zm0-264V464H128V224Zm-88-16H216a64.072,64.072,0,0,1-64-64H360A64.072,64.072,0,0,1,296,208Z"/><path d="M136,240V448a8,8,0,0,0,8,8H368a8,8,0,0,0,8-8V240a8,8,0,0,0-8-8H144A8,8,0,0,0,136,240ZM360,440H264V248h96ZM152,248h96V440H152Z"/><path d="M224,320a8,8,0,0,0-8,8v48a8,8,0,0,0,16,0V328A8,8,0,0,0,224,320Z"/><path d="M288,384a8,8,0,0,0,8-8V328a8,8,0,0,0-16,0v48A8,8,0,0,0,288,384Z"/><path d="M232,152H176a8,8,0,0,0,0,16h56a8,8,0,0,0,0-16Z"/><path d="M264,152h-8a8,8,0,0,0,0,16h8a8,8,0,0,0,0-16Z"/></g></svg>
