<?xml version="1.0"?>
<svg xmlns="http://www.w3.org/2000/svg" width="512" height="512" viewBox="0 0 512 512"><g><path d="M488,232V168a8,8,0,0,0-8-8H464a32,32,0,0,0-64,0H384a8,8,0,0,0-8,8v64h-8V120a112,112,0,0,0-224,0V232H128V192a8,8,0,0,0-8-8H104V160a8,8,0,0,0-8-8H64a8,8,0,0,0-8,8v24H48a8,8,0,0,0-8,8v40H24A16.021,16.021,0,0,0,8,248V456a16.021,16.021,0,0,0,16,16H40v24a8,8,0,0,0,8,8H72a8,8,0,0,0,7.76-6.06L86.25,472h339.5l6.49,25.94A8,8,0,0,0,440,504h24a8,8,0,0,0,8-8V472h16a16.021,16.021,0,0,0,16-16V248A16.021,16.021,0,0,0,488,232Zm-56-88a16.021,16.021,0,0,1,16,16H416A16.021,16.021,0,0,1,432,144Zm-40,32h8v8a8,8,0,0,0,16,0v-8h32v8a8,8,0,0,0,16,0v-8h8v56H392ZM160,120a96,96,0,0,1,192,0V232h-8V120a88,88,0,0,0-176,0V232h-8Zm168,0V232H184V120a72,72,0,0,1,144,0ZM72,168H88v16H72ZM56,200h56v32H56Zm9.75,288H56V472H69.75ZM456,488h-9.75l-4-16H456Zm32-32H24V248H488l.01,208Z"/><path d="M472,256H40a8,8,0,0,0-8,8V440a8,8,0,0,0,8,8H472a8,8,0,0,0,8-8V264A8,8,0,0,0,472,256Zm-8,88H264V272H464ZM248,272v72H48V272ZM48,360H248v72H48Zm216,72V360H464v72Z"/><path d="M120,320h48a8,8,0,0,0,0-16H120a8,8,0,0,0,0,16Z"/><path d="M168,392H120a8,8,0,0,0,0,16h48a8,8,0,0,0,0-16Z"/><path d="M344,320h48a8,8,0,0,0,0-16H344a8,8,0,0,0,0,16Z"/><path d="M392,392H344a8,8,0,0,0,0,16h48a8,8,0,0,0,0-16Z"/><path d="M290.343,106.343l-80,80a8,8,0,0,0,11.314,11.314l80-80a8,8,0,0,0-11.314-11.314Z"/><path d="M224,152a7.976,7.976,0,0,0,5.657-2.343l32-32a8,8,0,1,0-11.314-11.314l-32,32A8,8,0,0,0,224,152Z"/><path d="M278.343,158.343l-24,24a8,8,0,0,0,11.314,11.314l24-24a8,8,0,0,0-11.314-11.314Z"/></g></svg>
