<?xml version="1.0" encoding="utf-8"?>
<!-- Generator: Adobe Illustrator 22.0.1, SVG Export Plug-In . SVG Version: 6.00 Build 0)  -->
<svg version="1.1" id="Layer_1" xmlns="http://www.w3.org/2000/svg" xmlns:xlink="http://www.w3.org/1999/xlink" x="0px" y="0px"
	 viewBox="0 0 512 512" style="enable-background:new 0 0 512 512;" xml:space="preserve">
<style type="text/css">
	.st0{fill:#5E7EF2;}
</style>
<g>
	<path class="st0" d="M480,8H32c-4.4,0-8,3.6-8,8v32c0,4.4,3.6,8,8,8v416c0,4.4,3.6,8,8,8h8v16c0,4.4,3.6,8,8,8h24
		c3.4,0,6.5-2.2,7.6-5.5l6.2-18.5h332.5l6.2,18.5c1.1,3.3,4.1,5.5,7.6,5.5h24c4.4,0,8-3.6,8-8v-16c4.4,0,8-3.6,8-8V56
		c4.4,0,8-3.6,8-8V16C488,11.6,484.4,8,480,8z M74.2,488H64v-8h12.9L74.2,488z M456,488h-10.2l-2.7-8H456V488z M464,464H48V56h416
		V464z M472,40H40V24h432V40z"/>
	<path class="st0" d="M64,456h184c4.4,0,8-3.6,8-8V72c0-4.4-3.6-8-8-8H64c-4.4,0-8,3.6-8,8v376C56,452.4,59.6,456,64,456z M72,80
		h168v360H72V80z"/>
	<path class="st0" d="M224,224c-4.4,0-8,3.6-8,8v48c0,4.4,3.6,8,8,8s8-3.6,8-8v-48C232,227.6,228.4,224,224,224z"/>
	<path class="st0" d="M272,456h176c4.4,0,8-3.6,8-8v-64c0-4.4-3.6-8-8-8H272c-4.4,0-8,3.6-8,8v64C264,452.4,267.6,456,272,456z
		 M280,392h160v48H280V392z"/>
	<path class="st0" d="M376,400h-32c-4.4,0-8,3.6-8,8s3.6,8,8,8h32c4.4,0,8-3.6,8-8S380.4,400,376,400z"/>
	<path class="st0" d="M272,368h176c4.4,0,8-3.6,8-8v-64c0-4.4-3.6-8-8-8H272c-4.4,0-8,3.6-8,8v64C264,364.4,267.6,368,272,368z
		 M280,304h160v48H280V304z"/>
	<path class="st0" d="M376,312h-32c-4.4,0-8,3.6-8,8s3.6,8,8,8h32c4.4,0,8-3.6,8-8S380.4,312,376,312z"/>
	<path class="st0" d="M272,280h176c4.4,0,8-3.6,8-8V72c0-4.4-3.6-8-8-8H272c-4.4,0-8,3.6-8,8v200C264,276.4,267.6,280,272,280z
		 M280,80h160v184H280V80z"/>
	<path class="st0" d="M393.7,142.3c-3.1-3.1-8.2-3.1-11.3,0c0,0,0,0,0,0l-72,72c-3.1,3.1-3.1,8.2,0,11.3s8.2,3.1,11.3,0l0,0l72-72
		C396.8,150.5,396.8,145.5,393.7,142.3C393.7,142.3,393.7,142.3,393.7,142.3z"/>
	<path class="st0" d="M324,184c2.1,0,4.2-0.8,5.7-2.3l40-40c3.1-3.1,3.1-8.2,0-11.3c-3.1-3.1-8.2-3.1-11.3,0l-40,40
		c-3.1,3.1-3.1,8.2,0,11.3C319.8,183.2,321.9,184,324,184z"/>
	<path class="st0" d="M386.3,178.3l-32,32c-3.1,3.1-3.1,8.2,0,11.3s8.2,3.1,11.3,0l0,0l32-32c3.1-3.1,3.1-8.2,0-11.3
		S389.5,175.2,386.3,178.3z"/>
</g>
</svg>
