<?xml version="1.0" encoding="utf-8"?>
<!-- Generator: Adobe Illustrator 22.0.1, SVG Export Plug-In . SVG Version: 6.00 Build 0)  -->
<svg version="1.1" id="Capa_1" xmlns="http://www.w3.org/2000/svg" xmlns:xlink="http://www.w3.org/1999/xlink" x="0px" y="0px"
	 viewBox="0 0 480 480" style="enable-background:new 0 0 480 480;" xml:space="preserve">
<style type="text/css">
	.st0{fill:#5E7EF2;}
</style>
<g>
	<g>
		<g>
			<path class="st0" d="M472,320H304v-24c0-4.4-3.6-8-8-8h-48.2c10.2-7.5,16.2-19.4,16.2-32c0-4.4-3.6-8-8-8h-64c-4.4,0-8,3.6-8,8
				c0,12.6,6.1,24.5,16.2,32h-40.5c10.2-7.5,16.2-19.4,16.2-32c0-4.4-3.6-8-8-8h-64c-4.4,0-8,3.6-8,8c0,12.6,6.1,24.5,16.2,32H8
				c-4.4,0-8,3.6-8,8v176c0,4.4,3.6,8,8,8h464c4.4,0,8-3.6,8-8V328C480,323.6,476.4,320,472,320z M144,464H16V352h128V464z M144,336
				H16v-32h128V336z M128,278.6c-6.8-2.4-12.2-7.8-14.6-14.6h45.3C154.2,276.5,140.5,283.1,128,278.6z M246.6,264
				c-4.4,12.5-18.1,19.1-30.6,14.6c-6.8-2.4-12.2-7.8-14.6-14.6H246.6z M288,464H160V352h128V464z M288,328v8H160v-32h128V328z
				 M464,464H304V336h160V464z"/>
			<path class="st0" d="M8,176h288c4.4,0,8-3.6,8-8v-40h168c4.4,0,8-3.6,8-8c0-1.6-0.5-3.2-1.4-4.6L424,37.5V8c0-4.4-3.6-8-8-8h-56
				c-4.4,0-8,3.6-8,8v29.5L304,106V8c0-4.4-3.6-8-8-8H8C3.6,0,0,3.6,0,8v160C0,172.4,3.6,176,8,176z M366.6,44.6
				c0.9-1.3,1.4-2.9,1.4-4.6V16h40v24c0,1.6,0.5,3.2,1.4,4.6l47.2,67.4H319.4L366.6,44.6z M160,16h128v32H160V16z M160,64h128v96
				H160V64z M16,16h128v32H16V16z M16,64h128v96H16V64z"/>
			<path class="st0" d="M352,280c-4.4,0-8,3.6-8,8v8h-24c-4.4,0-8,3.6-8,8s3.6,8,8,8h144c4.4,0,8-3.6,8-8s-3.6-8-8-8h-24.5l0.5-7.5
				c0.3-4.4-3.1-8.2-7.5-8.5s-8.2,3.1-8.5,7.5l-0.5,8.5H360v-8C360,283.6,356.4,280,352,280z"/>
			<path class="st0" d="M320,456h128c4.4,0,8-3.6,8-8v-96c0-4.4-3.6-8-8-8H320c-4.4,0-8,3.6-8,8v96C312,452.4,315.6,456,320,456z
				 M328,360h112v80H328V360z"/>
			<path class="st0" d="M128,88c-4.4,0-8,3.6-8,8v32c0,4.4,3.6,8,8,8s8-3.6,8-8V96C136,91.6,132.4,88,128,88z"/>
			<path class="st0" d="M272,88c-4.4,0-8,3.6-8,8v32c0,4.4,3.6,8,8,8s8-3.6,8-8V96C280,91.6,276.4,88,272,88z"/>
			<path class="st0" d="M272,432c4.4,0,8-3.6,8-8v-32c0-4.4-3.6-8-8-8s-8,3.6-8,8v32C264,428.4,267.6,432,272,432z"/>
			<path class="st0" d="M128,432c4.4,0,8-3.6,8-8v-32c0-4.4-3.6-8-8-8s-8,3.6-8,8v32C120,428.4,123.6,432,128,432z"/>
			<path class="st0" d="M400,368h-32c-4.4,0-8,3.6-8,8s3.6,8,8,8h32c4.4,0,8-3.6,8-8S404.4,368,400,368z"/>
		</g>
	</g>
</g>
</svg>
