<?xml version="1.0" encoding="iso-8859-1"?>
<!-- Generator: Adobe Illustrator 19.0.0, SVG Export Plug-In . SVG Version: 6.00 Build 0)  -->
<svg version="1.1" id="Capa_1" xmlns="http://www.w3.org/2000/svg" xmlns:xlink="http://www.w3.org/1999/xlink" x="0px" y="0px"
	 viewBox="0 0 480 480" style="enable-background:new 0 0 480 480;" xml:space="preserve">
<g>
	<g>
		<path d="M472,280h-8.208c5.294-6.883,8.179-15.316,8.208-24v-8c-0.024-19.001-13.389-35.373-32-39.2V176
			c-0.066-57.41-46.59-103.934-104-104H144C86.59,72.066,40.066,118.59,40,176v32.8C21.389,212.627,8.024,228.999,8,248v8
			c0.029,8.684,2.914,17.117,8.208,24H8c-4.418,0-8,3.582-8,8v112c0,4.418,3.582,8,8,8h32c4.418,0,8-3.582,8-8v-32
			c0-4.418,3.582-8,8-8h368c4.418,0,8,3.582,8,8v32c0,4.418,3.582,8,8,8h32c4.418,0,8-3.582,8-8V288
			C480,283.582,476.418,280,472,280z M56,176c0.057-48.577,39.423-87.943,88-88h192c48.577,0.057,87.943,39.423,88,88v32h-8v-32
			c-0.048-44.163-35.837-79.952-80-80H144c-44.163,0.048-79.951,35.837-80,80v32h-8V176z M360,160h-96c-4.418,0-8,3.582-8,8v40h-32
			v-40c0-4.418-3.582-8-8-8h-96c-4.418,0-8,3.582-8,8v40H80v-32c0.04-35.33,28.67-63.96,64-64h192c35.33,0.04,63.96,28.67,64,64v32
			h-32v-40C368,163.582,364.418,160,360,160z M352,176v32h-80v-32H352z M208,176v32h-80v-32H208z M24,248c0-13.255,10.745-24,24-24
			h384c13.255,0,24,10.745,24,24v8c0,13.255-10.745,24-24,24H48c-13.255,0-24-10.745-24-24V248z M464,392h-16v-24
			c0-13.255-10.745-24-24-24H56c-13.255,0-24,10.745-24,24v24H16v-96h448V392z"/>
	</g>
</g>
<g>
</g>
<g>
</g>
<g>
</g>
<g>
</g>
<g>
</g>
<g>
</g>
<g>
</g>
<g>
</g>
<g>
</g>
<g>
</g>
<g>
</g>
<g>
</g>
<g>
</g>
<g>
</g>
<g>
</g>
</svg>
