<?xml version="1.0" encoding="utf-8"?>
<!-- Generator: Adobe Illustrator 22.0.1, SVG Export Plug-In . SVG Version: 6.00 Build 0)  -->
<svg version="1.1" id="Capa_1" xmlns="http://www.w3.org/2000/svg" xmlns:xlink="http://www.w3.org/1999/xlink" x="0px" y="0px"
	 viewBox="0 0 480 480" style="enable-background:new 0 0 480 480;" xml:space="preserve">
<style type="text/css">
	.st0{fill:#5E7EF2;}
</style>
<g>
	<g>
		<path class="st0" d="M472,280h-8.2c5.3-6.9,8.2-15.3,8.2-24v-8c0-19-13.4-35.4-32-39.2V176c-0.1-57.4-46.6-103.9-104-104H144
			C86.6,72.1,40.1,118.6,40,176v32.8C21.4,212.6,8,229,8,248v8c0,8.7,2.9,17.1,8.2,24H8c-4.4,0-8,3.6-8,8v112c0,4.4,3.6,8,8,8h32
			c4.4,0,8-3.6,8-8v-32c0-4.4,3.6-8,8-8h368c4.4,0,8,3.6,8,8v32c0,4.4,3.6,8,8,8h32c4.4,0,8-3.6,8-8V288
			C480,283.6,476.4,280,472,280z M56,176c0.1-48.6,39.4-87.9,88-88h192c48.6,0.1,87.9,39.4,88,88v32h-8v-32c0-44.2-35.8-80-80-80
			H144c-44.2,0-80,35.8-80,80v32h-8V176z M360,160h-96c-4.4,0-8,3.6-8,8v40h-32v-40c0-4.4-3.6-8-8-8h-96c-4.4,0-8,3.6-8,8v40H80v-32
			c0-35.3,28.7-64,64-64h192c35.3,0,64,28.7,64,64v32h-32v-40C368,163.6,364.4,160,360,160z M352,176v32h-80v-32H352z M208,176v32
			h-80v-32H208z M24,248c0-13.3,10.7-24,24-24h384c13.3,0,24,10.7,24,24v8c0,13.3-10.7,24-24,24H48c-13.3,0-24-10.7-24-24V248z
			 M464,392h-16v-24c0-13.3-10.7-24-24-24H56c-13.3,0-24,10.7-24,24v24H16v-96h448V392z"/>
	</g>
</g>
</svg>
