<?xml version="1.0" encoding="iso-8859-1"?>
<!-- Generator: Adobe Illustrator 19.0.0, SVG Export Plug-In . SVG Version: 6.00 Build 0)  -->
<svg version="1.1" id="Capa_1" xmlns="http://www.w3.org/2000/svg" xmlns:xlink="http://www.w3.org/1999/xlink" x="0px" y="0px"
	 viewBox="0 0 480 480" style="enable-background:new 0 0 480 480;" xml:space="preserve">
<g>
	<g>
		<g>
			<path d="M472,192h-80c10.134-0.042,19.15-6.445,22.528-16H416c13.255,0,24-10.745,24-24v-8c0-13.255-10.745-24-24-24
				c0-4.418-3.582-8-8-8h-48c-4.418,0-8,3.582-8,8v48c0,13.255,10.745,24,24,24H213.76l-10.664-32H288c13.255,0,24-10.745,24-24V24
				c0-13.255-10.745-24-24-24H64C50.745,0,40,10.745,40,24v112c0,13.255,10.745,24,24,24h84.904l-10.664,32H8c-4.418,0-8,3.582-8,8
				v32c0,4.418,3.582,8,8,8h24v232c0,4.418,3.582,8,8,8h32c4.418,0,8-3.582,8-8V240h192v232c0,4.418,3.582,8,8,8h160
				c4.418,0,8-3.582,8-8V240h24c4.418,0,8-3.582,8-8v-32C480,195.582,476.418,192,472,192z M416,136c4.418,0,8,3.582,8,8v8
				c0,4.418-3.582,8-8,8V136z M368,168v-40h32v40c0,4.418-3.582,8-8,8h-16C371.582,176,368,172.418,368,168z M64,144
				c-4.418,0-8-3.582-8-8V24c0-4.418,3.582-8,8-8h224c4.418,0,8,3.582,8,8v112c0,4.418-3.582,8-8,8H64z M196.896,192h-41.792
				l10.664-32h20.464L196.896,192z M64,464H48V240h16V464z M432,464H288v-64h144V464z M432,384H288v-64h144V384z M432,304H288v-64
				h144V304z M464,224H16v-16h448V224z"/>
			<path d="M344,264h32c4.418,0,8-3.582,8-8s-3.582-8-8-8h-32c-4.418,0-8,3.582-8,8S339.582,264,344,264z"/>
			<path d="M344,344h32c4.418,0,8-3.582,8-8s-3.582-8-8-8h-32c-4.418,0-8,3.582-8,8S339.582,344,344,344z"/>
			<path d="M344,424h32c4.418,0,8-3.582,8-8s-3.582-8-8-8h-32c-4.418,0-8,3.582-8,8S339.582,424,344,424z"/>
			<path d="M288,24H64v112h224V24z M272,120H80V40h192V120z"/>
		</g>
	</g>
</g>
<g>
</g>
<g>
</g>
<g>
</g>
<g>
</g>
<g>
</g>
<g>
</g>
<g>
</g>
<g>
</g>
<g>
</g>
<g>
</g>
<g>
</g>
<g>
</g>
<g>
</g>
<g>
</g>
<g>
</g>
</svg>
