<?xml version="1.0" encoding="utf-8"?>
<!-- Generator: Adobe Illustrator 22.0.1, SVG Export Plug-In . SVG Version: 6.00 Build 0)  -->
<svg version="1.1" id="Capa_1" xmlns="http://www.w3.org/2000/svg" xmlns:xlink="http://www.w3.org/1999/xlink" x="0px" y="0px"
	 viewBox="0 0 480 480" style="enable-background:new 0 0 480 480;" xml:space="preserve">
<style type="text/css">
	.st0{fill:#5E7EF2;}
</style>
<g>
	<g>
		<g>
			<path class="st0" d="M472,192h-80c10.1,0,19.1-6.4,22.5-16h1.5c13.3,0,24-10.7,24-24v-8c0-13.3-10.7-24-24-24c0-4.4-3.6-8-8-8
				h-48c-4.4,0-8,3.6-8,8v48c0,13.3,10.7,24,24,24H213.8l-10.7-32H288c13.3,0,24-10.7,24-24V24c0-13.3-10.7-24-24-24H64
				C50.7,0,40,10.7,40,24v112c0,13.3,10.7,24,24,24h84.9l-10.7,32H8c-4.4,0-8,3.6-8,8v32c0,4.4,3.6,8,8,8h24v232c0,4.4,3.6,8,8,8h32
				c4.4,0,8-3.6,8-8V240h192v232c0,4.4,3.6,8,8,8h160c4.4,0,8-3.6,8-8V240h24c4.4,0,8-3.6,8-8v-32C480,195.6,476.4,192,472,192z
				 M416,136c4.4,0,8,3.6,8,8v8c0,4.4-3.6,8-8,8V136z M368,168v-40h32v40c0,4.4-3.6,8-8,8h-16C371.6,176,368,172.4,368,168z M64,144
				c-4.4,0-8-3.6-8-8V24c0-4.4,3.6-8,8-8h224c4.4,0,8,3.6,8,8v112c0,4.4-3.6,8-8,8H64z M196.9,192h-41.8l10.7-32h20.5L196.9,192z
				 M64,464H48V240h16V464z M432,464H288v-64h144V464z M432,384H288v-64h144V384z M432,304H288v-64h144V304z M464,224H16v-16h448
				V224z"/>
			<path class="st0" d="M344,264h32c4.4,0,8-3.6,8-8s-3.6-8-8-8h-32c-4.4,0-8,3.6-8,8S339.6,264,344,264z"/>
			<path class="st0" d="M344,344h32c4.4,0,8-3.6,8-8s-3.6-8-8-8h-32c-4.4,0-8,3.6-8,8S339.6,344,344,344z"/>
			<path class="st0" d="M344,424h32c4.4,0,8-3.6,8-8s-3.6-8-8-8h-32c-4.4,0-8,3.6-8,8S339.6,424,344,424z"/>
			<path class="st0" d="M288,24H64v112h224V24z M272,120H80V40h192V120z"/>
		</g>
	</g>
</g>
</svg>
