<?xml version="1.0" encoding="utf-8"?>
<!-- Generator: Adobe Illustrator 22.0.1, SVG Export Plug-In . SVG Version: 6.00 Build 0)  -->
<svg version="1.1" id="Capa_1" xmlns="http://www.w3.org/2000/svg" xmlns:xlink="http://www.w3.org/1999/xlink" x="0px" y="0px"
	 viewBox="0 0 512 512" style="enable-background:new 0 0 512 512;" xml:space="preserve">
<style type="text/css">
	.st0{fill:#5E7EF2;}
</style>
<g>
	<path class="st0" d="M230.4,415.8c-2.2-3.4-6.5-5.1-10.4-4.2c-4.2,0.9-7.3,4.4-7.8,8.6c-0.5,4.1,1.8,8.3,5.5,10.1
		c3.7,1.8,8.2,1.2,11.3-1.7C232.4,425.3,233,419.8,230.4,415.8z"/>
	<path class="st0" d="M482.3,425.5h-90.2l-47.2-121.6c-0.2-0.5-0.4-0.9-0.6-1.4c-7.6-13.3-21.8-21.5-36.9-21.5h-11.3v-38.5
		c0-37.4-27.9-68.4-64-73.3v-32.3c0-0.2,0-0.5,0-0.7c-0.1-1.8-0.8-3.6-1.7-5c-0.3-0.4-0.6-0.8-1-1.2c0,0-0.1-0.1-0.1-0.1l-93.3-94.9
		V10c0-5.5-4.5-10-10-10s-10,4.5-10,10v24.9l-93.3,94.9c0,0-0.1,0.1-0.1,0.1c-0.4,0.4-0.7,0.8-1,1.2c-1,1.4-1.6,3.1-1.7,5
		c0,0.1,0,0.1,0,0.2c0,0.2,0,0.3,0,0.5v0V502c0,5.5,4.5,10,10,10h192.4c5.5,0,10-4.5,10-10v-35.6c0-5.5-4.5-10-10-10s-10,4.5-10,10
		V492h-30.2v-44.7c0-30.9-25.1-56-56-56c-30.9,0-56,25.1-56,56V492H39.7V329.4h172.4v46.5c0,5.5,4.5,10,10,10s10-4.5,10-10v-8.6
		h49.6L328.9,489c0.2,0.5,0.4,0.9,0.6,1.4c7.6,13.3,21.8,21.5,36.9,21.5h115.9c5.5,0,10-4.5,10-10v-66.4
		C492.3,429.9,487.8,425.5,482.3,425.5L482.3,425.5z M89.9,447.3c0-19.9,16.2-36,36-36c19.9,0,36,16.2,36,36V492h-72L89.9,447.3z
		 M232.1,189.4c25,4.7,44,26.7,44,53.1V281h-44L232.1,189.4z M125.9,53.2l72.3,73.6H53.5L125.9,53.2z M89.9,309.4v-44.6
		c0-19.9,16.2-36,36-36c19.9,0,36,16.2,36,36v44.6H89.9z M181.9,309.4v-44.6c0-30.9-25.1-56-56-56c-30.9,0-56,25.1-56,56v44.6H39.7
		V146.8h172.4v162.6H181.9z M472.3,491.8H366.5c-7.8,0-15.1-4.1-19.2-10.9l-49.4-127.2c-1.5-3.8-5.2-6.4-9.3-6.4h-56.5V301h75.3
		c7.8,0,15.1,4.1,19.2,10.9l49.4,127.2c1.5,3.8,5.2,6.4,9.3,6.4h87.1L472.3,491.8L472.3,491.8z"/>
</g>
</svg>
