<?xml version="1.0" encoding="iso-8859-1"?>
<!-- Generator: Adobe Illustrator 19.0.0, SVG Export Plug-In . SVG Version: 6.00 Build 0)  -->
<svg version="1.1" id="Capa_1" xmlns="http://www.w3.org/2000/svg" xmlns:xlink="http://www.w3.org/1999/xlink" x="0px" y="0px"
	 viewBox="0 0 480 480" style="enable-background:new 0 0 480 480;" xml:space="preserve">
<g>
	<g>
		<g>
			<path d="M312,368h128c4.418,0,8-3.582,8-8v-48c0-4.418-3.582-8-8-8H312c-4.418,0-8,3.582-8,8v48C304,364.418,307.582,368,312,368
				z M320,320h112v32H320V320z"/>
			<path d="M312,448h128c4.418,0,8-3.582,8-8v-48c0-4.418-3.582-8-8-8H312c-4.418,0-8,3.582-8,8v48C304,444.418,307.582,448,312,448
				z M320,400h112v32H320V400z"/>
			<path d="M384,328h-16c-4.418,0-8,3.582-8,8s3.582,8,8,8h16c4.418,0,8-3.582,8-8S388.418,328,384,328z"/>
			<path d="M392,408h-24c-4.418,0-8,3.582-8,8s3.582,8,8,8h24c4.418,0,8-3.582,8-8S396.418,408,392,408z"/>
			<path d="M472,0H8C3.582,0,0,3.582,0,8v464c0,4.418,3.582,8,8,8h464c4.418,0,8-3.582,8-8V8C480,3.582,476.418,0,472,0z M176,16
				h192v24H176V16z M336,104v104h-16V104c0-4.418,3.582-8,8-8S336,99.582,336,104z M280,104v120h-16V104c0-4.418,3.582-8,8-8
				S280,99.582,280,104z M224,104v120h-16V104c0-4.418,3.582-8,8-8S224,99.582,224,104z M176,56h32v25.472
				c-9.555,3.378-15.958,12.394-16,22.528v128c0,4.418,3.582,8,8,8h32c4.418,0,8-3.582,8-8V104c-0.042-10.134-6.445-19.15-16-22.528
				V56h40v25.472c-9.555,3.378-15.958,12.394-16,22.528v128c0,4.418,3.582,8,8,8h32c4.418,0,8-3.582,8-8V104
				c-0.042-10.134-6.445-19.15-16-22.528V56h40v25.472c-9.555,3.378-15.958,12.394-16,22.528v112c0,4.418,3.582,8,8,8h32
				c4.418,0,8-3.582,8-8V104c-0.042-10.134-6.445-19.15-16-22.528V56h32v216H176V56z M160,464H16V16h144V464z M272,464h-96V288h96
				V464z M464,464H288V288h176V464z M464,272h-80v-64h80V272z M464,192h-80V96h80V192z M464,80h-80V16h80V80z"/>
			<path d="M192,344h64c4.418,0,8-3.582,8-8v-32c0-4.418-3.582-8-8-8h-64c-4.418,0-8,3.582-8,8v32C184,340.418,187.582,344,192,344z
				 M200,312h48v16h-48V312z"/>
			<path d="M192,400h64c4.418,0,8-3.582,8-8v-32c0-4.418-3.582-8-8-8h-64c-4.418,0-8,3.582-8,8v32C184,396.418,187.582,400,192,400z
				 M200,368h48v16h-48V368z"/>
			<path d="M192,456h64c4.418,0,8-3.582,8-8v-32c0-4.418-3.582-8-8-8h-64c-4.418,0-8,3.582-8,8v32C184,452.418,187.582,456,192,456z
				 M200,424h48v16h-48V424z"/>
		</g>
	</g>
</g>
<g>
</g>
<g>
</g>
<g>
</g>
<g>
</g>
<g>
</g>
<g>
</g>
<g>
</g>
<g>
</g>
<g>
</g>
<g>
</g>
<g>
</g>
<g>
</g>
<g>
</g>
<g>
</g>
<g>
</g>
</svg>
