<?xml version="1.0" encoding="utf-8"?>
<!-- Generator: Adobe Illustrator 22.0.1, SVG Export Plug-In . SVG Version: 6.00 Build 0)  -->
<svg version="1.1" id="Layer_1" xmlns="http://www.w3.org/2000/svg" xmlns:xlink="http://www.w3.org/1999/xlink" x="0px" y="0px"
	 viewBox="0 0 512 512" style="enable-background:new 0 0 512 512;" xml:space="preserve">
<style type="text/css">
	.st0{fill:#5E7EF2;}
</style>
<g>
	<path class="st0" d="M496,456h-24v-96c0-4.4-3.6-8-8-8h-32c4.4,0,8-3.6,8-8s-3.6-8-8-8h-16v-16h32c4.4,0,8-3.6,8-8
		c0-0.3,0-0.5,0-0.8l-8-80c-0.4-4.1-3.9-7.2-8-7.2h-64c-4.1,0-7.5,3.1-8,7.2l-8,80c-0.4,4.4,2.8,8.3,7.2,8.8c0.3,0,0.5,0,0.8,0h32
		v16h-16c-4.4,0-8,3.6-8,8s3.6,8,8,8h-24c-4.4,0-8,3.6-8,8v96h-16v-56c4.4,0,8-3.6,8-8v-8c0-11.4-6.1-22-16-27.7V288
		c0-17.7-14.3-32-32-32H88c-17.7,0-32,14.3-32,32v68.3c-9.9,5.7-16,16.3-16,27.7v8c0,4.4,3.6,8,8,8v56H16c-4.4,0-8,3.6-8,8
		s3.6,8,8,8h480c4.4,0,8-3.6,8-8S500.4,456,496,456z M72,288c0-8.8,7.2-16,16-16h208c8.8,0,16,7.2,16,16v64h-33.4
		c4.4-12.5-2.1-26.2-14.6-30.6c-2.6-0.9-5.3-1.4-8-1.4h-32c-13.2,0-24,10.7-24,24c0,2.7,0.5,5.5,1.4,8h-18.8
		c4.4-12.5-2.1-26.2-14.6-30.6c-2.6-0.9-5.3-1.4-8-1.4h-32c-13.2,0-24,10.7-24,24c0,2.7,0.5,5.5,1.4,8H72V288z M264,344
		c0,4.4-3.6,8-8,8h-32c-4.4,0-8-3.6-8-8s3.6-8,8-8h32C260.4,336,264,339.6,264,344z M168,344c0,4.4-3.6,8-8,8h-32c-4.4,0-8-3.6-8-8
		s3.6-8,8-8h32C164.4,336,168,339.6,168,344z M320,456H64v-8h256V456z M320,432H64v-32h256V432z M56,384c0-8.8,7.2-16,16-16h240
		c8.8,0,16,7.2,16,16H56z M376.8,304l6.4-64h49.5l6.4,64H376.8z M456,456h-88v-56h88V456z M456,384h-88v-16h88V384z"/>
	<path class="st0" d="M296,48H88c-4.4,0-8,3.6-8,8v144c0,4.4,3.6,8,8,8h208c4.4,0,8-3.6,8-8V56C304,51.6,300.4,48,296,48z
		 M105.4,192l37.7-43.9l39.1,43.9H105.4z M288,192h-84.4l-30.9-34.7c0.1-0.1,0.3-0.2,0.4-0.3l57.2-56.8l57.8,58.2V192z M288,135.7
		l-52-52.4c-1.5-1.5-3.5-2.4-5.6-2.4c-2.1,0-4.2,0.8-5.7,2.3l-62.6,62.2L149,130.7c-1.5-1.7-3.7-2.7-6-2.7c-2.3,0-4.5,1-6,2.8
		L96,178.4V64h192V135.7z"/>
	<path class="st0" d="M144,120c13.3,0,24-10.7,24-24s-10.7-24-24-24s-24,10.7-24,24C120,109.2,130.8,120,144,120z M144,88
		c4.4,0,8,3.6,8,8s-3.6,8-8,8s-8-3.6-8-8C136,91.6,139.6,88,144,88z"/>
</g>
</svg>
